<?xml version="1.0" encoding="UTF-8" standalone="no"?>
<svg
   xmlns:dc="http://purl.org/dc/elements/1.1/"
   xmlns:cc="http://creativecommons.org/ns#"
   xmlns:rdf="http://www.w3.org/1999/02/22-rdf-syntax-ns#"
   xmlns:svg="http://www.w3.org/2000/svg"
   xmlns="http://www.w3.org/2000/svg"
   viewBox="0 0 610.66669 181.33333"
   height="181.33333"
   width="610.66669"
   xml:space="preserve"
   id="svg2"
   version="1.1"><metadata
     id="metadata8"><rdf:RDF><cc:Work
         rdf:about=""><dc:format>image/svg+xml</dc:format><dc:type
           rdf:resource="http://purl.org/dc/dcmitype/StillImage" /></cc:Work></rdf:RDF></metadata><defs
     id="defs6" /><g
     transform="matrix(1.3333333,0,0,-1.3333333,0,181.33333)"
     id="g10"><g
       transform="scale(0.1)"
       id="g12"><path
         id="path14"
         style="fill:#562212;fill-opacity:1;fill-rule:nonzero;stroke:none"
         d="m 551.539,199.57 c 67.805,0 114.047,49.473 114.047,114.305 0,66.148 -46.242,116.254 -114.047,116.254 -66.434,0 -112.73,-50.106 -112.73,-116.254 0,-64.832 46.296,-114.305 112.73,-114.305 z m 0,292.16 c 105.328,0 179.723,-75.863 179.723,-177.855 0,-100.781 -74.395,-175.91 -179.723,-175.91 -103.934,0 -179.059,75.129 -179.059,175.91 0,101.992 75.125,177.855 179.059,177.855" /><path
         id="path16"
         style="fill:#562212;fill-opacity:1;fill-rule:nonzero;stroke:none"
         d="m 2066.21,435.875 c 60.48,0 92.06,-39.387 97.37,-90.879 h -193.72 c 9.64,53.254 46.41,90.879 96.35,90.879 z m 159.05,-143.031 c 0.56,6.929 1.11,13.89 1.11,21.031 0,102.07 -52.89,177.855 -163.49,177.855 -94.51,0 -162.76,-75.785 -162.76,-177.855 0,-7.141 0.45,-14.102 1.1,-21.031 h -0.1 c 7.61,-87.629 63.65,-155.09 181.03,-155.09 56.69,0 104.96,17.437 139.6,45.769 l -26.32,48.188 c -25.84,-19.195 -65.12,-37.262 -111.34,-37.262 -73.29,0 -108.76,39.942 -115.14,98.395 h 0.26 256.05" /><path
         id="path18"
         style="fill:#562212;fill-opacity:1;fill-rule:nonzero;stroke:none"
         d="M 2519.11,482.723 V 344.965 h -179.72 v 137.758 h -66.89 v -335.91 h 66.89 V 293 h 179.72 V 146.813 h 66.77 v 335.91 h -66.77" /><path
         id="path20"
         style="fill:#562212;fill-opacity:1;fill-rule:nonzero;stroke:none"
         d="M 2938.15,482.723 H 2632.1 v -59.578 h 119.67 V 146.813 h 66.8 v 276.332 h 119.58 v 59.578" /><path
         id="path22"
         style="fill:#562212;fill-opacity:1;fill-rule:nonzero;stroke:none"
         d="m 3363.92,146.895 h -66.98 v 335.91 h 66.98 v -335.91" /><path
         id="path24"
         style="fill:#562212;fill-opacity:1;fill-rule:nonzero;stroke:none"
         d="m 924.055,323.539 v 3.047 c 0,0 6.121,1.863 11.793,8.246 5.543,6.301 128.092,147.84 128.092,147.84 H 988.918 L 871.094,345.02 H 844.309 V 482.672 H 777.426 V 146.867 h 66.883 v 146.188 h 30.382 L 1001.89,146.867 h 83.27 c 0,0 -142.64,160.918 -148.762,167.957 -5.933,6.563 -12.343,8.715 -12.343,8.715" /><path
         id="path26"
         style="fill:#562212;fill-opacity:1;fill-rule:nonzero;stroke:none"
         d="m 3090.91,197.309 c -20.77,0 -39.66,1.761 -39.66,1.761 v 121.082 c 0,0 14.63,3.965 40.47,3.965 55.96,0 80.51,-21.769 80.51,-61.969 0,-39.656 -22.24,-64.839 -81.32,-64.839 z m 11.94,182.769 c -31.22,0 -51.6,-3.992 -51.6,-3.992 v 106.637 h -66.98 V 146.734 c 0,0 55.03,-5.488 111.81,-5.488 105.06,0 139.7,64.203 139.7,123.027 0,59.844 -30.93,115.805 -132.93,115.805" /><path
         id="path28"
         style="fill:#562212;fill-opacity:1;fill-rule:nonzero;stroke:none"
         d="m 166.734,199.57 c -67.5387,0 -103.1988,49.473 -101.6207,114.305 1.3906,66.148 39.3597,116.254 106.7927,116.254 37.16,0 87.473,-34.086 87.473,-95.586 V 241.715 C 238.422,215.773 206.098,199.57 166.734,199.57 Z m 95.403,283.102 -1.84,-42.356 h -4.254 C 234.824,471.906 192.102,491.73 158.754,491.73 60.9375,491.73 2.48438,415.867 0.0664063,313.875 -2.14063,213.094 56.8672,137.965 154.684,137.965 c 45.035,0 73,12.789 100.336,45.191 h 4.359 v -30.011 c 0,-65.02 -45.113,-90.7817 -95.977,-90.7817 -46.797,0 -83.1911,17.5937 -105.5114,31.039 L 36.0156,37.9141 C 57.3398,26.9922 97.0703,3.17578 163.402,3.17578 c 94.032,0 162.676,55.96092 162.676,163.49222 v 316.004 h -63.941" /><path
         id="path30"
         style="fill:#562212;fill-opacity:1;fill-rule:nonzero;stroke:none"
         d="m 1350.17,482.723 v -243.45 c -19.56,-24.472 -49.58,-39.652 -87.55,-39.652 -61.53,0 -89.6,49.367 -88.21,114.309 v 168.875 h -64.75 V 313.93 c -2.31,-100.891 38.07,-176.016 136,-176.016 44.74,0 75.13,13.34 100.33,45.219 h 4.18 v -30.016 c 0,-64.9412 -45.04,-90.7772 -95.9,-90.7772 -46.77,0 -83.08,17.6993 -105.51,31.0391 l -21.77,-55.5156 c 21.22,-10.9258 61.05,-34.74221 127.28,-34.74221 93.93,0 162.78,56.06641 162.78,163.51991 v 316.082 h -66.88" /><path
         id="path32"
         style="fill:#562212;fill-opacity:1;fill-rule:nonzero;stroke:none"
         d="m 1790.59,482.723 c 0,0 -110.71,-155.453 -113.94,-160.078 -3.07,-4.54 -4.17,-9.082 -4.17,-9.082 h -2.42 c 0,0 -1.39,4.542 -4.91,9.082 -3.52,4.625 -122.26,160.078 -122.26,160.078 h -63.18 v -335.91 h 66.96 v 214.171 c 0,14.918 -3.05,23.348 -3.05,23.348 h 3.05 l 123.02,-165.254 h 2.89 l 113.94,165.254 h 3.15 c 0,0 -3.15,-8.801 -3.15,-23.164 V 146.813 h 67.07 v 335.91 h -63" /><path
         id="path34"
         style="fill:#562212;fill-opacity:1;fill-rule:nonzero;stroke:none"
         d="m 3018.35,549.844 v 335.91 L 3131,885.648 V 729.273 c 0,-11.394 -2.49,-24.445 -2.49,-24.445 h 4.91 l 122.74,180.82 h 107.82 v -335.91 l -112.73,0.106 v 157.844 c 0,11.32 2.49,21.953 2.49,21.953 h -4.91 L 3126.17,549.844 h -107.82" /><path
         id="path36"
         style="fill:#562212;fill-opacity:1;fill-rule:nonzero;stroke:none"
         d="m 2784.64,645.48 c 40.94,0 68.17,31.774 68.17,71.793 0,40.836 -27.23,72.817 -68.17,72.817 -39.94,0 -68.19,-31.981 -68.19,-72.817 0,-40.019 28.25,-71.793 68.19,-71.793 z m -0.1,249.094 c 107.19,0 187.12,-75.781 187.12,-177.301 0,-100.601 -79.93,-176.386 -187.12,-176.386 -105.99,0 -185.92,75.785 -185.92,176.386 0,101.52 79.93,177.301 185.92,177.301" /><path
         id="path38"
         style="fill:#562212;fill-opacity:1;fill-rule:nonzero;stroke:none"
         d="m 2463.52,885.73 c 0,0 -94.12,-122.292 -97.9,-127.097 -4.73,-5.672 -5.09,-8.719 -5.09,-8.719 h -4.83 c 0,0 -0.93,3.231 -5.36,8.719 -6.67,8.324 -104.15,127.097 -104.15,127.097 h -88.83 V 549.816 h 108.48 v 140.989 c 0,15.207 -2.42,24.472 -2.42,24.472 h 4.91 L 2355.7,615.02 h 4.72 l 80.96,100.257 h 4.73 c 0,0 -2.32,-9.086 -2.32,-24.472 V 549.816 h 108.59 V 885.73 h -88.86" /><path
         id="path40"
         style="fill:#c59368;fill-opacity:1;fill-rule:nonzero;stroke:none"
         d="M 3901.2,544.855 V 885.676 H 3632.53 V 545.039 c 0,-120.059 63.92,-230.926 167.96,-290.879 L 4102.57,79.8242 V 389.688 l -167.84,97.003 c -20.75,12.028 -33.53,34.188 -33.53,58.164" /><path
         id="path42"
         style="fill:#ed5338;fill-opacity:1;fill-rule:nonzero;stroke:none"
         d="m 4102.63,214.09 302.16,174.418 c 103.94,59.949 167.96,170.918 167.96,290.793 v 676.449 h -470.12 v -268.66 h 201.46 V 679.227 c 0,-24.004 -12.76,-46.247 -33.54,-58.196 L 4102.63,524.055 V 214.09" /><path
         id="path44"
         style="fill:#562212;fill-opacity:1;fill-rule:nonzero;stroke:none"
         d="M 4102.63,1355.77 3632.59,885.621 h 470.04 z" /></g></g></svg>